<svg xmlns="http://www.w3.org/2000/svg" width="35" height="35" viewBox="0 0 35 35"><g><g><path fill="#fff" d="M22.95 22.088a1.088 1.088 0 0 1-1.018-.717l-1.821-5.03a1.094 1.094 0 0 1-.173.227L1.956 34.68a1.076 1.076 0 0 1-1.533 0 1.097 1.097 0 0 1 0-1.544l17.982-18.111a1.1 1.1 0 0 1 .088-.08l-4.651-1.68a1.096 1.096 0 0 1-.303-1.888l4.963-3.91.187-6.345c.013-.397.239-.757.59-.939.35-.183.77-.156 1.1.066l5.227 3.546 6.048-1.778a1.073 1.073 0 0 1 1.069.274c.28.28.386.691.278 1.074l-1.733 6.102 3.482 5.245a1.1 1.1 0 0 1 .072 1.108 1.084 1.084 0 0 1-.93.598l-6.23.224-3.855 5.021a1.08 1.08 0 0 1-.857.425zm-6.527-10.21l4.56 1.646c.303.11.543.349.653.654l1.659 4.583 2.963-3.86c.197-.256.498-.412.82-.422l4.841-.173-2.73-4.031a1.104 1.104 0 0 1-.146-.916l1.333-4.691-4.65 1.368c-.307.09-.642.038-.91-.143l-4.018-2.726-.144 4.878c-.01.324-.162.627-.416.827z"/></g></g></svg>