<svg xmlns="http://www.w3.org/2000/svg" width="35" height="35" viewBox="0 0 35 35"><g><g><path fill="#fff" d="M10.937 10.938c0 1.783-.866 3.35-2.187 4.35v16.43A3.285 3.285 0 0 1 5.469 35a3.285 3.285 0 0 1-3.282-3.282v-16.43C.867 14.287 0 12.72 0 10.937c0-1.785.866-3.352 2.187-4.352V3.281A3.285 3.285 0 0 1 5.47 0 3.285 3.285 0 0 1 8.75 3.281v3.305c1.321 1 2.187 2.567 2.187 4.352zm-6.562-5.36a5.601 5.601 0 0 1 2.187 0V3.28a1.093 1.093 0 1 0-2.187 0zm2.187 10.717a5.416 5.416 0 0 1-2.187 0v15.423a1.093 1.093 0 1 0 2.187 0zm2.188-5.357c0-.323-.06-.629-.147-.921-.018-.058-.034-.116-.054-.172a3.264 3.264 0 0 0-.413-.806c-.004-.007-.01-.011-.015-.018a3.323 3.323 0 0 0-.674-.685 3.378 3.378 0 0 0-1.978-.68 3.377 3.377 0 0 0-1.968.67c-.003.003-.006.008-.01.01a3.32 3.32 0 0 0-.674.685c-.005.007-.011.01-.015.018-.177.245-.31.518-.414.806-.02.056-.036.114-.053.172a3.192 3.192 0 0 0-.148.92c0 .32.06.626.148.919.017.058.033.115.053.173.104.289.237.562.414.806l.015.017a3.277 3.277 0 0 0 .684.694c.264.199.558.359.874.47.344.123.708.203 1.094.203.385 0 .75-.08 1.093-.203a3.233 3.233 0 0 0 .885-.479 3.28 3.28 0 0 0 .674-.685c.004-.007.01-.011.015-.017.176-.244.31-.517.413-.806.02-.058.036-.115.054-.173a3.19 3.19 0 0 0 .147-.918zm26.25 0c0 1.783-.866 3.35-2.188 4.35v16.43A3.285 3.285 0 0 1 29.532 35a3.285 3.285 0 0 1-3.282-3.282v-16.43c-1.321-1-2.188-2.567-2.188-4.35 0-1.785.867-3.352 2.188-4.352V3.281A3.285 3.285 0 0 1 29.531 0a3.285 3.285 0 0 1 3.281 3.281v3.305c1.322 1 2.188 2.567 2.188 4.352zm-6.563-5.36a5.603 5.603 0 0 1 2.188 0V3.28a1.093 1.093 0 1 0-2.188 0zm2.188 10.717a5.417 5.417 0 0 1-2.188 0v15.423a1.093 1.093 0 1 0 2.188 0zm2.187-5.357c0-.323-.06-.629-.147-.921-.017-.058-.033-.116-.053-.172a3.267 3.267 0 0 0-.414-.806c-.004-.007-.01-.011-.015-.018a3.323 3.323 0 0 0-.674-.685c-.004-.002-.007-.007-.01-.01a3.376 3.376 0 0 0-1.968-.67 3.377 3.377 0 0 0-1.967.67l-.01.01a3.32 3.32 0 0 0-.675.685c-.004.007-.01.01-.015.018-.176.245-.31.518-.413.806-.02.056-.036.114-.054.172a3.192 3.192 0 0 0-.147.92c0 .32.06.626.147.919.018.058.033.115.054.173.103.289.237.562.413.806l.015.017a3.277 3.277 0 0 0 .685.694c.264.199.557.359.873.47.344.123.709.203 1.094.203.386 0 .75-.08 1.094-.203a3.23 3.23 0 0 0 .884-.479 3.28 3.28 0 0 0 .674-.685l.015-.017c.177-.244.31-.517.414-.806.02-.058.036-.115.053-.173.088-.293.147-.598.147-.918zM22.97 24.063c0 1.783-.867 3.351-2.188 4.349v3.306A3.285 3.285 0 0 1 17.5 35a3.285 3.285 0 0 1-3.281-3.282v-3.306c-1.321-.998-2.188-2.566-2.188-4.35 0-1.784.867-3.352 2.188-4.351V3.28A3.285 3.285 0 0 1 17.5 0a3.285 3.285 0 0 1 3.281 3.281v16.43c1.322 1 2.188 2.567 2.188 4.352zm-6.563-5.36a5.574 5.574 0 0 1 2.188 0V3.28a1.093 1.093 0 1 0-2.188 0zm2.188 10.717a5.416 5.416 0 0 1-2.188 0v2.298a1.093 1.093 0 1 0 2.188 0zm2.187-5.357c0-.323-.06-.628-.147-.921-.017-.058-.033-.116-.054-.17a3.283 3.283 0 0 0-.413-.809l-.015-.017a3.325 3.325 0 0 0-.674-.686l-.01-.008a3.364 3.364 0 0 0-.874-.47 3.256 3.256 0 0 0-1.094-.2c-.386 0-.75.078-1.094.2-.316.113-.61.274-.873.47l-.011.008a3.322 3.322 0 0 0-.674.686c-.004.007-.01.011-.015.017-.176.246-.31.52-.414.808-.02.055-.036.113-.053.171a3.19 3.19 0 0 0-.147.92c0 .321.06.626.147.919.017.058.033.115.053.173.104.288.238.562.414.806l.015.017c.19.26.416.49.674.685l.01.01c.264.197.558.358.874.469.344.124.708.203 1.094.203.386 0 .75-.08 1.094-.203a3.26 3.26 0 0 0 .873-.47 3.28 3.28 0 0 0 .685-.695c.004-.006.01-.01.015-.016.176-.244.31-.518.413-.806.02-.058.037-.115.054-.173.087-.293.147-.598.147-.918z"/></g></g></svg>