<svg xmlns="http://www.w3.org/2000/svg" width="40" height="39" viewBox="0 0 40 39"><g><g><path fill="#fff" d="M35.888 2.447c.401 0 .684.073.83.13.177.467.413 2.142-1.327 3.874l-8.098 8.053-.78.776.063 1.096c.134 2.292.384 6.401.6 9.922.189 3.135.37 6.096.381 6.347.006.174.009.214-.153.409a53.455 53.455 0 0 1-1.611 1.799c-.886-2.372-2.745-7.381-3.772-10.185L20.7 21.06l-2.731 2.715-5.02 4.802-.7.694-.02.982c-.018.784-.014 2.19-.012 3.43.002.762.004 1.463 0 1.915l-.193-.307c-1.013-1.606-2.413-3.827-2.841-4.52l-.313-.507-.512-.309c-1.798-1.08-3.781-2.32-5.052-3.131h.048c.397 0 1.052.009 1.788.02.96.013 2.052.028 2.886.028.32 0 .605-.002.833-.007l.987-.023.698-.694 4.834-4.959 2.721-2.704-3.611-1.321a2281.24 2281.24 0 0 1-10.343-3.832 56.87 56.87 0 0 1 1.814-1.61c.123-.1.217-.152.284-.152l.086.002c.271.014 3.64.232 6.896.444 3.458.224 7.36.478 9.578.617l1.109.07.786-.782 8.095-8.05c1.247-1.239 2.472-1.424 3.092-1.424.62 0 0 0 0 0zm-23.67 33.15l.14.222c-.037-.02-.15-.04-.141-.055l.002-.166zm.15.24l-.01-.018c.01.006.014.011.01.017zm-9.203-9.104c.02-.012.04.01.056.036a97.64 97.64 0 0 1-.056-.036zm.056.036l.086.055h-.033c-.016.008-.033-.026-.053-.055zM31.057 2.141l-8.096 8.05c-4.56-.287-16.239-1.055-16.528-1.063a4.4 4.4 0 0 0-.188-.004c-.393 0-1.075.075-1.85.712-.909.747-2.806 2.521-2.806 2.521-.457.457-.69 1.022-.634 1.553.034.322.209.907 1.002 1.216a2052.2 2052.2 0 0 0 11.685 4.334l-4.834 4.958c-.214.005-.48.008-.779.008-1.474 0-3.758-.049-4.674-.049-.121 0-.218 0-.287.003-.279.009-.855-.128-2.377 1.137l-.108.1c-.457.455-.564.907-.573 1.206-.01.308.073.753.521 1.11.27.216 3.723 2.415 6.555 4.117.68 1.101 3.804 6.04 3.967 6.307.238.4.627.628 1.093.643h.038c.453 0 .918-.224 1.374-.663 1.287-1.498 1.11-2.119 1.116-2.379.02-.817-.015-4.279.015-5.651l5.02-4.802a1951.258 1951.258 0 0 0 4.276 11.529c.312.788.9.961 1.224.993.053.006.107.01.16.01.485 0 .988-.228 1.4-.638 0 0 1.778-1.877 2.534-2.79.757-.912.726-1.691.712-2.059-.006-.254-.718-11.805-.983-16.316L37.13 8.18C40 5.326 39.543 1.885 38.478.827 38.005.357 37.052 0 35.888 0c-1.453 0-3.237.555-4.831 2.14z"/></g></g></svg>